<svg xmlns="http://www.w3.org/2000/svg" width="120px" height="120px" viewBox="0 0 360 360"><path fill="#000000" stroke="transparent" d="M 0 0 l 14.4 0 l 0 14.4 l -14.4 0 l 0 -14.4 Z M 14.4 0 l 14.4 0 l 0 14.4 l -14.4 0 l 0 -14.4 Z M 28.8 0 l 14.4 0 l 0 14.4 l -14.4 0 l 0 -14.4 Z M 43.2 0 l 14.4 0 l 0 14.4 l -14.4 0 l 0 -14.4 Z M 57.6 0 l 14.4 0 l 0 14.4 l -14.4 0 l 0 -14.4 Z M 72 0 l 14.4 0 l 0 14.4 l -14.4 0 l 0 -14.4 Z M 86.4 0 l 14.4 0 l 0 14.4 l -14.4 0 l 0 -14.4 Z M 144 0 l 14.4 0 l 0 14.4 l -14.4 0 l 0 -14.4 Z M 187.2 0 l 14.4 0 l 0 14.4 l -14.4 0 l 0 -14.4 Z M 201.6 0 l 14.4 0 l 0 14.4 l -14.4 0 l 0 -14.4 Z M 216 0 l 14.4 0 l 0 14.4 l -14.4 0 l 0 -14.4 Z M 259.2 0 l 14.4 0 l 0 14.4 l -14.4 0 l 0 -14.4 Z M 273.6 0 l 14.4 0 l 0 14.4 l -14.4 0 l 0 -14.4 Z M 288 0 l 14.4 0 l 0 14.4 l -14.4 0 l 0 -14.4 Z M 302.4 0 l 14.4 0 l 0 14.4 l -14.4 0 l 0 -14.4 Z M 316.8 0 l 14.4 0 l 0 14.4 l -14.4 0 l 0 -14.4 Z M 331.2 0 l 14.4 0 l 0 14.4 l -14.4 0 l 0 -14.4 Z M 345.6 0 l 14.4 0 l 0 14.4 l -14.4 0 l 0 -14.4 Z M 0 14.4 l 14.4 0 l 0 14.4 l -14.4 0 l 0 -14.4 Z M 86.4 14.4 l 14.4 0 l 0 14.4 l -14.4 0 l 0 -14.4 Z M 129.6 14.4 l 14.4 0 l 0 14.4 l -14.4 0 l 0 -14.4 Z M 187.2 14.4 l 14.4 0 l 0 14.4 l -14.4 0 l 0 -14.4 Z M 201.6 14.4 l 14.4 0 l 0 14.4 l -14.4 0 l 0 -14.4 Z M 216 14.4 l 14.4 0 l 0 14.4 l -14.4 0 l 0 -14.4 Z M 259.2 14.4 l 14.4 0 l 0 14.4 l -14.4 0 l 0 -14.4 Z M 345.6 14.4 l 14.4 0 l 0 14.4 l -14.4 0 l 0 -14.4 Z M 0 28.8 l 14.4 0 l 0 14.4 l -14.4 0 l 0 -14.4 Z M 28.8 28.8 l 14.4 0 l 0 14.4 l -14.4 0 l 0 -14.4 Z M 43.2 28.8 l 14.4 0 l 0 14.4 l -14.4 0 l 0 -14.4 Z M 57.6 28.8 l 14.4 0 l 0 14.4 l -14.4 0 l 0 -14.4 Z M 86.4 28.8 l 14.4 0 l 0 14.4 l -14.4 0 l 0 -14.4 Z M 115.2 28.8 l 14.4 0 l 0 14.4 l -14.4 0 l 0 -14.4 Z M 158.4 28.8 l 14.4 0 l 0 14.4 l -14.4 0 l 0 -14.4 Z M 201.6 28.8 l 14.4 0 l 0 14.4 l -14.4 0 l 0 -14.4 Z M 216 28.8 l 14.4 0 l 0 14.4 l -14.4 0 l 0 -14.4 Z M 230.4 28.8 l 14.4 0 l 0 14.4 l -14.4 0 l 0 -14.4 Z M 259.2 28.8 l 14.4 0 l 0 14.4 l -14.4 0 l 0 -14.4 Z M 288 28.8 l 14.4 0 l 0 14.4 l -14.4 0 l 0 -14.4 Z M 302.4 28.8 l 14.4 0 l 0 14.4 l -14.4 0 l 0 -14.4 Z M 316.8 28.8 l 14.4 0 l 0 14.4 l -14.4 0 l 0 -14.4 Z M 345.6 28.8 l 14.4 0 l 0 14.4 l -14.4 0 l 0 -14.4 Z M 0 43.2 l 14.4 0 l 0 14.4 l -14.4 0 l 0 -14.4 Z M 28.8 43.2 l 14.4 0 l 0 14.4 l -14.4 0 l 0 -14.4 Z M 43.2 43.2 l 14.4 0 l 0 14.4 l -14.4 0 l 0 -14.4 Z M 57.6 43.2 l 14.4 0 l 0 14.4 l -14.4 0 l 0 -14.4 Z M 86.4 43.2 l 14.4 0 l 0 14.4 l -14.4 0 l 0 -14.4 Z M 129.6 43.2 l 14.4 0 l 0 14.4 l -14.4 0 l 0 -14.4 Z M 259.2 43.2 l 14.4 0 l 0 14.4 l -14.4 0 l 0 -14.4 Z M 288 43.2 l 14.4 0 l 0 14.4 l -14.4 0 l 0 -14.4 Z M 302.4 43.2 l 14.4 0 l 0 14.4 l -14.4 0 l 0 -14.4 Z M 316.8 43.2 l 14.4 0 l 0 14.4 l -14.4 0 l 0 -14.4 Z M 345.6 43.2 l 14.4 0 l 0 14.4 l -14.4 0 l 0 -14.4 Z M 0 57.6 l 14.4 0 l 0 14.4 l -14.4 0 l 0 -14.4 Z M 28.8 57.6 l 14.4 0 l 0 14.4 l -14.4 0 l 0 -14.4 Z M 43.2 57.6 l 14.4 0 l 0 14.4 l -14.4 0 l 0 -14.4 Z M 57.6 57.6 l 14.4 0 l 0 14.4 l -14.4 0 l 0 -14.4 Z M 86.4 57.6 l 14.4 0 l 0 14.4 l -14.4 0 l 0 -14.4 Z M 129.6 57.6 l 14.4 0 l 0 14.4 l -14.4 0 l 0 -14.4 Z M 172.8 57.6 l 14.4 0 l 0 14.4 l -14.4 0 l 0 -14.4 Z M 187.2 57.6 l 14.4 0 l 0 14.4 l -14.4 0 l 0 -14.4 Z M 201.6 57.6 l 14.4 0 l 0 14.4 l -14.4 0 l 0 -14.4 Z M 216 57.6 l 14.4 0 l 0 14.4 l -14.4 0 l 0 -14.4 Z M 259.2 57.6 l 14.4 0 l 0 14.4 l -14.4 0 l 0 -14.4 Z M 288 57.6 l 14.4 0 l 0 14.4 l -14.4 0 l 0 -14.4 Z M 302.4 57.6 l 14.4 0 l 0 14.4 l -14.4 0 l 0 -14.4 Z M 316.8 57.6 l 14.4 0 l 0 14.4 l -14.4 0 l 0 -14.4 Z M 345.6 57.6 l 14.4 0 l 0 14.4 l -14.4 0 l 0 -14.4 Z M 0 72 l 14.4 0 l 0 14.4 l -14.4 0 l 0 -14.4 Z M 86.4 72 l 14.4 0 l 0 14.4 l -14.4 0 l 0 -14.4 Z M 144 72 l 14.4 0 l 0 14.4 l -14.4 0 l 0 -14.4 Z M 158.4 72 l 14.4 0 l 0 14.4 l -14.4 0 l 0 -14.4 Z M 172.8 72 l 14.4 0 l 0 14.4 l -14.4 0 l 0 -14.4 Z M 201.6 72 l 14.4 0 l 0 14.4 l -14.4 0 l 0 -14.4 Z M 216 72 l 14.4 0 l 0 14.4 l -14.4 0 l 0 -14.4 Z M 230.4 72 l 14.4 0 l 0 14.4 l -14.4 0 l 0 -14.4 Z M 259.2 72 l 14.4 0 l 0 14.4 l -14.4 0 l 0 -14.4 Z M 345.6 72 l 14.4 0 l 0 14.4 l -14.4 0 l 0 -14.4 Z M 0 86.4 l 14.4 0 l 0 14.4 l -14.4 0 l 0 -14.4 Z M 14.4 86.4 l 14.4 0 l 0 14.4 l -14.4 0 l 0 -14.4 Z M 28.8 86.4 l 14.4 0 l 0 14.4 l -14.4 0 l 0 -14.4 Z M 43.2 86.4 l 14.4 0 l 0 14.4 l -14.4 0 l 0 -14.4 Z M 57.6 86.4 l 14.4 0 l 0 14.4 l -14.4 0 l 0 -14.4 Z M 72 86.4 l 14.4 0 l 0 14.4 l -14.4 0 l 0 -14.4 Z M 86.4 86.4 l 14.4 0 l 0 14.4 l -14.4 0 l 0 -14.4 Z M 115.2 86.4 l 14.4 0 l 0 14.4 l -14.4 0 l 0 -14.4 Z M 144 86.4 l 14.4 0 l 0 14.4 l -14.4 0 l 0 -14.4 Z M 172.8 86.4 l 14.4 0 l 0 14.4 l -14.4 0 l 0 -14.4 Z M 201.6 86.4 l 14.4 0 l 0 14.4 l -14.4 0 l 0 -14.4 Z M 230.4 86.4 l 14.4 0 l 0 14.4 l -14.4 0 l 0 -14.4 Z M 259.2 86.4 l 14.4 0 l 0 14.4 l -14.4 0 l 0 -14.4 Z M 273.6 86.4 l 14.4 0 l 0 14.4 l -14.4 0 l 0 -14.4 Z M 288 86.4 l 14.4 0 l 0 14.4 l -14.4 0 l 0 -14.4 Z M 302.4 86.4 l 14.4 0 l 0 14.4 l -14.4 0 l 0 -14.4 Z M 316.8 86.4 l 14.4 0 l 0 14.4 l -14.4 0 l 0 -14.4 Z M 331.2 86.4 l 14.4 0 l 0 14.4 l -14.4 0 l 0 -14.4 Z M 345.6 86.4 l 14.4 0 l 0 14.4 l -14.4 0 l 0 -14.4 Z M 115.2 100.8 l 14.4 0 l 0 14.4 l -14.4 0 l 0 -14.4 Z M 172.8 100.8 l 14.4 0 l 0 14.4 l -14.4 0 l 0 -14.4 Z M 187.2 100.8 l 14.4 0 l 0 14.4 l -14.4 0 l 0 -14.4 Z M 216 100.8 l 14.4 0 l 0 14.4 l -14.4 0 l 0 -14.4 Z M 230.4 100.8 l 14.4 0 l 0 14.4 l -14.4 0 l 0 -14.4 Z M 0 115.2 l 14.4 0 l 0 14.4 l -14.4 0 l 0 -14.4 Z M 14.4 115.2 l 14.4 0 l 0 14.4 l -14.4 0 l 0 -14.4 Z M 28.8 115.2 l 14.4 0 l 0 14.4 l -14.4 0 l 0 -14.4 Z M 57.6 115.2 l 14.4 0 l 0 14.4 l -14.4 0 l 0 -14.4 Z M 72 115.2 l 14.4 0 l 0 14.4 l -14.4 0 l 0 -14.4 Z M 86.4 115.2 l 14.4 0 l 0 14.4 l -14.4 0 l 0 -14.4 Z M 100.8 115.2 l 14.4 0 l 0 14.4 l -14.4 0 l 0 -14.4 Z M 115.2 115.2 l 14.4 0 l 0 14.4 l -14.4 0 l 0 -14.4 Z M 158.4 115.2 l 14.4 0 l 0 14.4 l -14.4 0 l 0 -14.4 Z M 172.8 115.2 l 14.4 0 l 0 14.4 l -14.4 0 l 0 -14.4 Z M 187.2 115.2 l 14.4 0 l 0 14.4 l -14.4 0 l 0 -14.4 Z M 216 115.2 l 14.4 0 l 0 14.4 l -14.4 0 l 0 -14.4 Z M 230.4 115.2 l 14.4 0 l 0 14.4 l -14.4 0 l 0 -14.4 Z M 244.8 115.2 l 14.4 0 l 0 14.4 l -14.4 0 l 0 -14.4 Z M 259.2 115.2 l 14.4 0 l 0 14.4 l -14.4 0 l 0 -14.4 Z M 316.8 115.2 l 14.4 0 l 0 14.4 l -14.4 0 l 0 -14.4 Z M 0 129.6 l 14.4 0 l 0 14.4 l -14.4 0 l 0 -14.4 Z M 28.8 129.6 l 14.4 0 l 0 14.4 l -14.4 0 l 0 -14.4 Z M 115.2 129.6 l 14.4 0 l 0 14.4 l -14.4 0 l 0 -14.4 Z M 129.6 129.6 l 14.4 0 l 0 14.4 l -14.4 0 l 0 -14.4 Z M 172.8 129.6 l 14.4 0 l 0 14.4 l -14.4 0 l 0 -14.4 Z M 187.2 129.6 l 14.4 0 l 0 14.4 l -14.4 0 l 0 -14.4 Z M 244.8 129.6 l 14.4 0 l 0 14.4 l -14.4 0 l 0 -14.4 Z M 259.2 129.6 l 14.4 0 l 0 14.4 l -14.4 0 l 0 -14.4 Z M 345.6 129.6 l 14.4 0 l 0 14.4 l -14.4 0 l 0 -14.4 Z M 0 144 l 14.4 0 l 0 14.4 l -14.4 0 l 0 -14.4 Z M 57.6 144 l 14.4 0 l 0 14.4 l -14.4 0 l 0 -14.4 Z M 72 144 l 14.4 0 l 0 14.4 l -14.4 0 l 0 -14.4 Z M 86.4 144 l 14.4 0 l 0 14.4 l -14.4 0 l 0 -14.4 Z M 144 144 l 14.4 0 l 0 14.4 l -14.4 0 l 0 -14.4 Z M 187.2 144 l 14.4 0 l 0 14.4 l -14.4 0 l 0 -14.4 Z M 230.4 144 l 14.4 0 l 0 14.4 l -14.4 0 l 0 -14.4 Z M 244.8 144 l 14.4 0 l 0 14.4 l -14.4 0 l 0 -14.4 Z M 316.8 144 l 14.4 0 l 0 14.4 l -14.4 0 l 0 -14.4 Z M 331.2 144 l 14.4 0 l 0 14.4 l -14.4 0 l 0 -14.4 Z M 345.6 144 l 14.4 0 l 0 14.4 l -14.4 0 l 0 -14.4 Z M 43.2 158.4 l 14.4 0 l 0 14.4 l -14.4 0 l 0 -14.4 Z M 57.6 158.4 l 14.4 0 l 0 14.4 l -14.4 0 l 0 -14.4 Z M 72 158.4 l 14.4 0 l 0 14.4 l -14.4 0 l 0 -14.4 Z M 129.6 158.4 l 14.4 0 l 0 14.4 l -14.4 0 l 0 -14.4 Z M 144 158.4 l 14.4 0 l 0 14.4 l -14.4 0 l 0 -14.4 Z M 158.4 158.4 l 14.4 0 l 0 14.4 l -14.4 0 l 0 -14.4 Z M 187.2 158.4 l 14.4 0 l 0 14.4 l -14.4 0 l 0 -14.4 Z M 201.6 158.4 l 14.4 0 l 0 14.4 l -14.4 0 l 0 -14.4 Z M 230.4 158.4 l 14.4 0 l 0 14.4 l -14.4 0 l 0 -14.4 Z M 259.2 158.4 l 14.4 0 l 0 14.4 l -14.4 0 l 0 -14.4 Z M 273.6 158.4 l 14.4 0 l 0 14.4 l -14.4 0 l 0 -14.4 Z M 331.2 158.4 l 14.4 0 l 0 14.4 l -14.4 0 l 0 -14.4 Z M 28.8 172.8 l 14.4 0 l 0 14.4 l -14.4 0 l 0 -14.4 Z M 43.2 172.8 l 14.4 0 l 0 14.4 l -14.4 0 l 0 -14.4 Z M 86.4 172.8 l 14.4 0 l 0 14.4 l -14.4 0 l 0 -14.4 Z M 144 172.8 l 14.4 0 l 0 14.4 l -14.4 0 l 0 -14.4 Z M 158.4 172.8 l 14.4 0 l 0 14.4 l -14.4 0 l 0 -14.4 Z M 172.8 172.8 l 14.4 0 l 0 14.4 l -14.4 0 l 0 -14.4 Z M 187.2 172.8 l 14.4 0 l 0 14.4 l -14.4 0 l 0 -14.4 Z M 216 172.8 l 14.4 0 l 0 14.4 l -14.4 0 l 0 -14.4 Z M 230.4 172.8 l 14.4 0 l 0 14.4 l -14.4 0 l 0 -14.4 Z M 244.8 172.8 l 14.4 0 l 0 14.4 l -14.4 0 l 0 -14.4 Z M 259.2 172.8 l 14.4 0 l 0 14.4 l -14.4 0 l 0 -14.4 Z M 302.4 172.8 l 14.4 0 l 0 14.4 l -14.4 0 l 0 -14.4 Z M 331.2 172.8 l 14.4 0 l 0 14.4 l -14.4 0 l 0 -14.4 Z M 345.6 172.8 l 14.4 0 l 0 14.4 l -14.4 0 l 0 -14.4 Z M 28.8 187.2 l 14.4 0 l 0 14.4 l -14.4 0 l 0 -14.4 Z M 100.8 187.2 l 14.4 0 l 0 14.4 l -14.4 0 l 0 -14.4 Z M 129.6 187.2 l 14.4 0 l 0 14.4 l -14.4 0 l 0 -14.4 Z M 144 187.2 l 14.4 0 l 0 14.4 l -14.4 0 l 0 -14.4 Z M 172.8 187.2 l 14.4 0 l 0 14.4 l -14.4 0 l 0 -14.4 Z M 230.4 187.2 l 14.4 0 l 0 14.4 l -14.4 0 l 0 -14.4 Z M 259.2 187.2 l 14.4 0 l 0 14.4 l -14.4 0 l 0 -14.4 Z M 302.4 187.2 l 14.4 0 l 0 14.4 l -14.4 0 l 0 -14.4 Z M 345.6 187.2 l 14.4 0 l 0 14.4 l -14.4 0 l 0 -14.4 Z M 0 201.6 l 14.4 0 l 0 14.4 l -14.4 0 l 0 -14.4 Z M 28.8 201.6 l 14.4 0 l 0 14.4 l -14.4 0 l 0 -14.4 Z M 57.6 201.6 l 14.4 0 l 0 14.4 l -14.4 0 l 0 -14.4 Z M 86.4 201.6 l 14.4 0 l 0 14.4 l -14.4 0 l 0 -14.4 Z M 129.6 201.6 l 14.4 0 l 0 14.4 l -14.4 0 l 0 -14.4 Z M 144 201.6 l 14.4 0 l 0 14.4 l -14.4 0 l 0 -14.4 Z M 172.8 201.6 l 14.4 0 l 0 14.4 l -14.4 0 l 0 -14.4 Z M 201.6 201.6 l 14.4 0 l 0 14.4 l -14.4 0 l 0 -14.4 Z M 244.8 201.6 l 14.4 0 l 0 14.4 l -14.4 0 l 0 -14.4 Z M 259.2 201.6 l 14.4 0 l 0 14.4 l -14.4 0 l 0 -14.4 Z M 273.6 201.6 l 14.4 0 l 0 14.4 l -14.4 0 l 0 -14.4 Z M 316.8 201.6 l 14.4 0 l 0 14.4 l -14.4 0 l 0 -14.4 Z M 331.2 201.6 l 14.4 0 l 0 14.4 l -14.4 0 l 0 -14.4 Z M 345.6 201.6 l 14.4 0 l 0 14.4 l -14.4 0 l 0 -14.4 Z M 14.4 216 l 14.4 0 l 0 14.4 l -14.4 0 l 0 -14.4 Z M 57.6 216 l 14.4 0 l 0 14.4 l -14.4 0 l 0 -14.4 Z M 100.8 216 l 14.4 0 l 0 14.4 l -14.4 0 l 0 -14.4 Z M 115.2 216 l 14.4 0 l 0 14.4 l -14.4 0 l 0 -14.4 Z M 129.6 216 l 14.4 0 l 0 14.4 l -14.4 0 l 0 -14.4 Z M 144 216 l 14.4 0 l 0 14.4 l -14.4 0 l 0 -14.4 Z M 172.8 216 l 14.4 0 l 0 14.4 l -14.4 0 l 0 -14.4 Z M 187.2 216 l 14.4 0 l 0 14.4 l -14.4 0 l 0 -14.4 Z M 201.6 216 l 14.4 0 l 0 14.4 l -14.4 0 l 0 -14.4 Z M 216 216 l 14.4 0 l 0 14.4 l -14.4 0 l 0 -14.4 Z M 244.8 216 l 14.4 0 l 0 14.4 l -14.4 0 l 0 -14.4 Z M 288 216 l 14.4 0 l 0 14.4 l -14.4 0 l 0 -14.4 Z M 331.2 216 l 14.4 0 l 0 14.4 l -14.4 0 l 0 -14.4 Z M 0 230.4 l 14.4 0 l 0 14.4 l -14.4 0 l 0 -14.4 Z M 28.8 230.4 l 14.4 0 l 0 14.4 l -14.4 0 l 0 -14.4 Z M 86.4 230.4 l 14.4 0 l 0 14.4 l -14.4 0 l 0 -14.4 Z M 100.8 230.4 l 14.4 0 l 0 14.4 l -14.4 0 l 0 -14.4 Z M 158.4 230.4 l 14.4 0 l 0 14.4 l -14.4 0 l 0 -14.4 Z M 172.8 230.4 l 14.4 0 l 0 14.4 l -14.4 0 l 0 -14.4 Z M 187.2 230.4 l 14.4 0 l 0 14.4 l -14.4 0 l 0 -14.4 Z M 230.4 230.4 l 14.4 0 l 0 14.4 l -14.4 0 l 0 -14.4 Z M 244.8 230.4 l 14.4 0 l 0 14.4 l -14.4 0 l 0 -14.4 Z M 259.2 230.4 l 14.4 0 l 0 14.4 l -14.4 0 l 0 -14.4 Z M 273.6 230.4 l 14.4 0 l 0 14.4 l -14.4 0 l 0 -14.4 Z M 288 230.4 l 14.4 0 l 0 14.4 l -14.4 0 l 0 -14.4 Z M 302.4 230.4 l 14.4 0 l 0 14.4 l -14.4 0 l 0 -14.4 Z M 115.2 244.8 l 14.4 0 l 0 14.4 l -14.4 0 l 0 -14.4 Z M 187.2 244.8 l 14.4 0 l 0 14.4 l -14.4 0 l 0 -14.4 Z M 201.6 244.8 l 14.4 0 l 0 14.4 l -14.4 0 l 0 -14.4 Z M 216 244.8 l 14.4 0 l 0 14.4 l -14.4 0 l 0 -14.4 Z M 230.4 244.8 l 14.4 0 l 0 14.4 l -14.4 0 l 0 -14.4 Z M 288 244.8 l 14.4 0 l 0 14.4 l -14.4 0 l 0 -14.4 Z M 302.4 244.8 l 14.4 0 l 0 14.4 l -14.4 0 l 0 -14.4 Z M 331.2 244.8 l 14.4 0 l 0 14.4 l -14.4 0 l 0 -14.4 Z M 345.6 244.8 l 14.4 0 l 0 14.4 l -14.4 0 l 0 -14.4 Z M 0 259.2 l 14.4 0 l 0 14.4 l -14.4 0 l 0 -14.4 Z M 14.4 259.2 l 14.4 0 l 0 14.4 l -14.4 0 l 0 -14.4 Z M 28.8 259.2 l 14.4 0 l 0 14.4 l -14.4 0 l 0 -14.4 Z M 43.2 259.2 l 14.4 0 l 0 14.4 l -14.4 0 l 0 -14.4 Z M 57.6 259.2 l 14.4 0 l 0 14.4 l -14.4 0 l 0 -14.4 Z M 72 259.2 l 14.4 0 l 0 14.4 l -14.4 0 l 0 -14.4 Z M 86.4 259.2 l 14.4 0 l 0 14.4 l -14.4 0 l 0 -14.4 Z M 115.2 259.2 l 14.4 0 l 0 14.4 l -14.4 0 l 0 -14.4 Z M 144 259.2 l 14.4 0 l 0 14.4 l -14.4 0 l 0 -14.4 Z M 172.8 259.2 l 14.4 0 l 0 14.4 l -14.4 0 l 0 -14.4 Z M 216 259.2 l 14.4 0 l 0 14.4 l -14.4 0 l 0 -14.4 Z M 230.4 259.2 l 14.4 0 l 0 14.4 l -14.4 0 l 0 -14.4 Z M 259.2 259.2 l 14.4 0 l 0 14.4 l -14.4 0 l 0 -14.4 Z M 288 259.2 l 14.4 0 l 0 14.4 l -14.4 0 l 0 -14.4 Z M 302.4 259.2 l 14.4 0 l 0 14.4 l -14.4 0 l 0 -14.4 Z M 331.2 259.2 l 14.4 0 l 0 14.4 l -14.4 0 l 0 -14.4 Z M 345.6 259.2 l 14.4 0 l 0 14.4 l -14.4 0 l 0 -14.4 Z M 0 273.6 l 14.4 0 l 0 14.4 l -14.4 0 l 0 -14.4 Z M 86.4 273.6 l 14.4 0 l 0 14.4 l -14.4 0 l 0 -14.4 Z M 115.2 273.6 l 14.4 0 l 0 14.4 l -14.4 0 l 0 -14.4 Z M 144 273.6 l 14.4 0 l 0 14.4 l -14.4 0 l 0 -14.4 Z M 187.2 273.6 l 14.4 0 l 0 14.4 l -14.4 0 l 0 -14.4 Z M 230.4 273.6 l 14.4 0 l 0 14.4 l -14.4 0 l 0 -14.4 Z M 288 273.6 l 14.4 0 l 0 14.4 l -14.4 0 l 0 -14.4 Z M 302.4 273.6 l 14.4 0 l 0 14.4 l -14.4 0 l 0 -14.4 Z M 331.2 273.6 l 14.4 0 l 0 14.4 l -14.4 0 l 0 -14.4 Z M 0 288 l 14.4 0 l 0 14.4 l -14.4 0 l 0 -14.4 Z M 28.8 288 l 14.4 0 l 0 14.4 l -14.4 0 l 0 -14.4 Z M 43.2 288 l 14.4 0 l 0 14.4 l -14.4 0 l 0 -14.4 Z M 57.6 288 l 14.4 0 l 0 14.4 l -14.4 0 l 0 -14.4 Z M 86.4 288 l 14.4 0 l 0 14.4 l -14.4 0 l 0 -14.4 Z M 115.2 288 l 14.4 0 l 0 14.4 l -14.4 0 l 0 -14.4 Z M 129.6 288 l 14.4 0 l 0 14.4 l -14.4 0 l 0 -14.4 Z M 172.8 288 l 14.4 0 l 0 14.4 l -14.4 0 l 0 -14.4 Z M 187.2 288 l 14.4 0 l 0 14.4 l -14.4 0 l 0 -14.4 Z M 230.4 288 l 14.4 0 l 0 14.4 l -14.4 0 l 0 -14.4 Z M 244.8 288 l 14.4 0 l 0 14.4 l -14.4 0 l 0 -14.4 Z M 259.2 288 l 14.4 0 l 0 14.4 l -14.4 0 l 0 -14.4 Z M 273.6 288 l 14.4 0 l 0 14.4 l -14.4 0 l 0 -14.4 Z M 288 288 l 14.4 0 l 0 14.4 l -14.4 0 l 0 -14.4 Z M 302.4 288 l 14.4 0 l 0 14.4 l -14.4 0 l 0 -14.4 Z M 331.2 288 l 14.4 0 l 0 14.4 l -14.4 0 l 0 -14.4 Z M 0 302.4 l 14.4 0 l 0 14.4 l -14.4 0 l 0 -14.4 Z M 28.8 302.4 l 14.4 0 l 0 14.4 l -14.4 0 l 0 -14.4 Z M 43.2 302.4 l 14.4 0 l 0 14.4 l -14.4 0 l 0 -14.4 Z M 57.6 302.4 l 14.4 0 l 0 14.4 l -14.4 0 l 0 -14.4 Z M 86.4 302.4 l 14.4 0 l 0 14.4 l -14.4 0 l 0 -14.4 Z M 172.8 302.4 l 14.4 0 l 0 14.4 l -14.4 0 l 0 -14.4 Z M 244.8 302.4 l 14.4 0 l 0 14.4 l -14.4 0 l 0 -14.4 Z M 273.6 302.4 l 14.4 0 l 0 14.4 l -14.4 0 l 0 -14.4 Z M 288 302.4 l 14.4 0 l 0 14.4 l -14.4 0 l 0 -14.4 Z M 302.4 302.4 l 14.4 0 l 0 14.4 l -14.4 0 l 0 -14.4 Z M 316.8 302.4 l 14.4 0 l 0 14.4 l -14.4 0 l 0 -14.4 Z M 0 316.8 l 14.4 0 l 0 14.4 l -14.4 0 l 0 -14.4 Z M 28.8 316.8 l 14.4 0 l 0 14.4 l -14.4 0 l 0 -14.4 Z M 43.2 316.8 l 14.4 0 l 0 14.4 l -14.4 0 l 0 -14.4 Z M 57.6 316.8 l 14.4 0 l 0 14.4 l -14.4 0 l 0 -14.4 Z M 86.4 316.8 l 14.4 0 l 0 14.4 l -14.4 0 l 0 -14.4 Z M 115.2 316.8 l 14.4 0 l 0 14.4 l -14.4 0 l 0 -14.4 Z M 129.6 316.8 l 14.4 0 l 0 14.4 l -14.4 0 l 0 -14.4 Z M 144 316.8 l 14.4 0 l 0 14.4 l -14.4 0 l 0 -14.4 Z M 201.6 316.8 l 14.4 0 l 0 14.4 l -14.4 0 l 0 -14.4 Z M 216 316.8 l 14.4 0 l 0 14.4 l -14.4 0 l 0 -14.4 Z M 288 316.8 l 14.4 0 l 0 14.4 l -14.4 0 l 0 -14.4 Z M 345.6 316.8 l 14.4 0 l 0 14.4 l -14.4 0 l 0 -14.4 Z M 0 331.2 l 14.4 0 l 0 14.4 l -14.4 0 l 0 -14.4 Z M 86.4 331.2 l 14.4 0 l 0 14.4 l -14.4 0 l 0 -14.4 Z M 115.2 331.2 l 14.4 0 l 0 14.4 l -14.4 0 l 0 -14.4 Z M 129.6 331.2 l 14.4 0 l 0 14.4 l -14.4 0 l 0 -14.4 Z M 144 331.2 l 14.4 0 l 0 14.4 l -14.4 0 l 0 -14.4 Z M 158.4 331.2 l 14.4 0 l 0 14.4 l -14.4 0 l 0 -14.4 Z M 172.8 331.2 l 14.4 0 l 0 14.4 l -14.4 0 l 0 -14.4 Z M 187.2 331.2 l 14.4 0 l 0 14.4 l -14.4 0 l 0 -14.4 Z M 216 331.2 l 14.4 0 l 0 14.4 l -14.4 0 l 0 -14.4 Z M 230.4 331.2 l 14.4 0 l 0 14.4 l -14.4 0 l 0 -14.4 Z M 259.2 331.2 l 14.4 0 l 0 14.4 l -14.4 0 l 0 -14.4 Z M 288 331.2 l 14.4 0 l 0 14.4 l -14.4 0 l 0 -14.4 Z M 302.4 331.2 l 14.4 0 l 0 14.4 l -14.4 0 l 0 -14.4 Z M 331.2 331.2 l 14.4 0 l 0 14.4 l -14.4 0 l 0 -14.4 Z M 0 345.6 l 14.4 0 l 0 14.4 l -14.4 0 l 0 -14.4 Z M 14.4 345.6 l 14.4 0 l 0 14.4 l -14.4 0 l 0 -14.4 Z M 28.8 345.6 l 14.4 0 l 0 14.4 l -14.4 0 l 0 -14.4 Z M 43.2 345.6 l 14.4 0 l 0 14.4 l -14.4 0 l 0 -14.4 Z M 57.6 345.6 l 14.4 0 l 0 14.4 l -14.4 0 l 0 -14.4 Z M 72 345.6 l 14.4 0 l 0 14.4 l -14.4 0 l 0 -14.4 Z M 86.4 345.6 l 14.4 0 l 0 14.4 l -14.4 0 l 0 -14.4 Z M 115.2 345.6 l 14.4 0 l 0 14.4 l -14.4 0 l 0 -14.4 Z M 129.6 345.6 l 14.4 0 l 0 14.4 l -14.4 0 l 0 -14.4 Z M 144 345.6 l 14.4 0 l 0 14.4 l -14.4 0 l 0 -14.4 Z M 187.2 345.6 l 14.4 0 l 0 14.4 l -14.4 0 l 0 -14.4 Z M 216 345.6 l 14.4 0 l 0 14.4 l -14.4 0 l 0 -14.4 Z M 230.4 345.6 l 14.4 0 l 0 14.4 l -14.4 0 l 0 -14.4 Z M 244.8 345.6 l 14.4 0 l 0 14.4 l -14.4 0 l 0 -14.4 Z M 259.2 345.6 l 14.4 0 l 0 14.4 l -14.4 0 l 0 -14.4 Z M 273.6 345.6 l 14.4 0 l 0 14.4 l -14.4 0 l 0 -14.4 Z M 331.2 345.6 l 14.4 0 l 0 14.4 l -14.4 0 l 0 -14.4 Z M 345.6 345.6 l 14.4 0 l 0 14.4 l -14.4 0 l 0 -14.4 Z" /></svg>