<svg version="1.1" xmlns="http://www.w3.org/2000/svg" xmlns:xlink="http://www.w3.org/1999/xlink" width="712" height="1354"><defs/><g><g/><g/><g/><g/><g/><g/><g/><g/><g/><g/><g/><g/><g/><g/><g/><g/><g/><g/><g/><g/><g><rect fill="white" stroke="none" x="0" y="0" width="712" height="1354"/></g><g><text fill="black" stroke="none" font-family="sans-serif" font-size="16.5pt" font-style="normal" font-weight="normal" text-decoration="normal" x="296.1330523720345" y="26.3876361" text-anchor="start" dominant-baseline="alphabetic">login-order</text></g><g/><g><path fill="none" stroke="black" paint-order="fill stroke markers" d=" M 160.71101962644534 103.26361593799999 L 160.71101962644534 1354.0375670779997" stroke-miterlimit="10" stroke-width="1.4659797833333332" stroke-dasharray="13.532121076923076,5.863919133333333"/><path fill="none" stroke="black" paint-order="fill stroke markers" d=" M 317.9056126370573 103.26361593799999 L 317.9056126370573 1354.0375670779997" stroke-miterlimit="10" stroke-width="1.4659797833333332" stroke-dasharray="13.532121076923076,5.863919133333333"/><path fill="none" stroke="black" paint-order="fill stroke markers" d=" M 469.8669410535534 103.26361593799999 L 469.8669410535534 1354.0375670779997" stroke-miterlimit="10" stroke-width="1.4659797833333332" stroke-dasharray="13.532121076923076,5.863919133333333"/><path fill="none" stroke="black" paint-order="fill stroke markers" d=" M 619.2441477659479 103.26361593799999 L 619.2441477659479 1354.0375670779997" stroke-miterlimit="10" stroke-width="1.4659797833333332" stroke-dasharray="13.532121076923076,5.863919133333333"/></g><g><path fill="none" stroke="none"/><g><path fill="white" stroke="black" paint-order="fill stroke markers" d=" M 100.39275404617581 55.765870957999994 L 221.02928520671486 55.765870957999994 L 221.02928520671486 103.26361593799999 L 100.39275404617581 103.26361593799999 L 100.39275404617581 55.765870957999994 Z" stroke-miterlimit="10" stroke-width="2.814681184" stroke-dasharray=""/></g><g><g/><text fill="black" stroke="none" font-family="sans-serif" font-size="11pt" font-style="normal" font-weight="normal" text-decoration="normal" x="119.4798108251758" y="85.67185853800001" text-anchor="start" dominant-baseline="alphabetic">LoginStatus</text></g><path fill="none" stroke="none"/><g><path fill="white" stroke="black" paint-order="fill stroke markers" d=" M 248.5035763048346 55.765870957999994 L 387.30764896927997 55.765870957999994 L 387.30764896927997 103.26361593799999 L 248.5035763048346 103.26361593799999 L 248.5035763048346 55.765870957999994 Z" stroke-miterlimit="10" stroke-width="2.814681184" stroke-dasharray=""/></g><g><g/><text fill="black" stroke="none" font-family="sans-serif" font-size="11pt" font-style="normal" font-weight="normal" text-decoration="normal" x="267.59063308383463" y="85.67185853800001" text-anchor="start" dominant-baseline="alphabetic">WelcomePage</text></g><path fill="none" stroke="none"/><g><path fill="white" stroke="black" paint-order="fill stroke markers" d=" M 404.89940636928 55.765870957999994 L 534.8344757378268 55.765870957999994 L 534.8344757378268 103.26361593799999 L 404.89940636928 103.26361593799999 L 404.89940636928 55.765870957999994 Z" stroke-miterlimit="10" stroke-width="2.814681184" stroke-dasharray=""/></g><g><g/><text fill="black" stroke="none" font-family="sans-serif" font-size="11pt" font-style="normal" font-weight="normal" text-decoration="normal" x="423.98646314827994" y="85.67185853800001" text-anchor="start" dominant-baseline="alphabetic">ConfigModel</text></g><path fill="none" stroke="none"/><g><path fill="white" stroke="black" paint-order="fill stroke markers" d=" M 552.4262331378268 55.765870957999994 L 686.062062394069 55.765870957999994 L 686.062062394069 103.26361593799999 L 552.4262331378268 103.26361593799999 L 552.4262331378268 55.765870957999994 Z" stroke-miterlimit="10" stroke-width="2.814681184" stroke-dasharray=""/></g><g><g/><text fill="black" stroke="none" font-family="sans-serif" font-size="11pt" font-style="normal" font-weight="normal" text-decoration="normal" x="571.5132899168268" y="85.67185853800001" text-anchor="start" dominant-baseline="alphabetic">SyncManager</text></g></g><g><path fill="white" stroke="black" paint-order="fill stroke markers" d=" M 151.91514092644533 321.40140769799996 L 169.50689832644534 321.40140769799996 L 169.50689832644534 748.881112518 L 151.91514092644533 748.881112518 L 151.91514092644533 321.40140769799996" stroke-miterlimit="10" stroke-width="1.4659797833333332" stroke-dasharray=""/><path fill="white" stroke="black" paint-order="fill stroke markers" d=" M 309.1097339370573 370.65832841799994 L 326.7014913370573 370.65832841799994 L 326.7014913370573 562.4084840779999 L 309.1097339370573 562.4084840779999 L 309.1097339370573 370.65832841799994" stroke-miterlimit="10" stroke-width="1.4659797833333332" stroke-dasharray=""/><path fill="white" stroke="black" paint-order="fill stroke markers" d=" M 151.91514092644533 908.966104858 L 169.50689832644534 908.966104858 L 169.50689832644534 1292.4664161779997 L 151.91514092644533 1292.4664161779997 L 151.91514092644533 908.966104858" stroke-miterlimit="10" stroke-width="1.4659797833333332" stroke-dasharray=""/><path fill="white" stroke="black" paint-order="fill stroke markers" d=" M 309.1097339370573 1100.716260518 L 326.7014913370573 1100.716260518 L 326.7014913370573 1292.4664161779997 L 309.1097339370573 1292.4664161779997 L 309.1097339370573 1100.716260518" stroke-miterlimit="10" stroke-width="1.4659797833333332" stroke-dasharray=""/><g><g><rect fill="white" stroke="none" x="190.32381124977866" y="138.44713073799997" width="97.96900976394531" height="22.86928462"/></g><text fill="black" stroke="none" font-family="sans-serif" font-size="11pt" font-style="normal" font-weight="normal" text-decoration="normal" x="192.96257485977867" y="154.279712398" text-anchor="start" dominant-baseline="alphabetic">AddObserver</text></g><g><path fill="none" stroke="black" paint-order="fill stroke markers" d=" M 317.9056126370573 161.31641535799997 L 163.642979193112 161.31641535799997" stroke-miterlimit="10" stroke-width="1.4659797833333332" stroke-dasharray=""/><g transform="translate(160.71101962644534,161.31641535799997) translate(-160.71101962644534,-161.31641535799997)"><path fill="none" stroke="black" paint-order="fill stroke markers" d=" M 175.37081745977866 153.9865164413333 L 162.17699940977866 161.31641535799997 L 175.37081745977866 168.64631427466665" stroke-miterlimit="10" stroke-width="1.4659797833333332"/></g></g><path fill="white" stroke="black" paint-order="fill stroke markers" d=" M 160.71101962644534 251.91396596799999 L 151.91514092644533 251.91396596799999 M 38.628160391992196 231.683444958 L 136.08255926644534 231.683444958 L 151.91514092644533 247.51602661799998 L 151.91514092644533 272.144486978 L 38.628160391992196 272.144486978 L 38.628160391992196 231.683444958 M 136.08255926644534 231.683444958 L 136.08255926644534 247.51602661799998 L 151.91514092644533 247.51602661799998" stroke-miterlimit="10" stroke-width="1.4659797833333332" stroke-dasharray=""/><g><text fill="black" stroke="none" font-family="sans-serif" font-size="11pt" font-style="normal" font-weight="normal" text-decoration="normal" x="63.2566207519922" y="256.311905318" text-anchor="start" dominant-baseline="alphabetic">Bad Case</text></g><g><g><rect fill="white" stroke="none" x="31.825541369238294" y="298.532123078" width="97.05993688796875" height="22.86928462"/></g><text fill="black" stroke="none" font-family="sans-serif" font-size="11pt" font-style="normal" font-weight="normal" text-decoration="normal" x="34.46430497923829" y="314.364704738" text-anchor="start" dominant-baseline="alphabetic">OnUserLogin</text></g><g><path fill="none" stroke="black" paint-order="fill stroke markers" d=" M 8.7958787 321.40140769799996 L 148.98318135977865 321.40140769799996" stroke-miterlimit="10" stroke-width="1.4659797833333332" stroke-dasharray=""/><g transform="translate(151.91514092644533,321.40140769799996) translate(-151.91514092644533,-321.40140769799996)"><path fill="black" stroke="none" paint-order="stroke fill markers" d=" M 137.255343093112 314.0715087813333 L 151.91514092644533 321.40140769799996 L 137.255343093112 328.7313066146666 Z"/></g></g><g><g><rect fill="white" stroke="none" x="206.60153646950522" y="347.78904379799997" width="65.41355932449218" height="22.86928462"/></g><text fill="black" stroke="none" font-family="sans-serif" font-size="11pt" font-style="normal" font-weight="normal" text-decoration="normal" x="209.24030007950523" y="363.621625458" text-anchor="start" dominant-baseline="alphabetic">OnLogin</text></g><g><path fill="none" stroke="black" paint-order="fill stroke markers" d=" M 169.50689832644534 370.65832841799994 L 306.17777437039064 370.65832841799994" stroke-miterlimit="10" stroke-width="1.4659797833333332" stroke-dasharray=""/><g transform="translate(309.1097339370573,370.65832841799994) translate(-309.1097339370573,-370.65832841799994)"><path fill="black" stroke="none" paint-order="stroke fill markers" d=" M 294.4499361037239 363.3284295013333 L 309.1097339370573 370.65832841799994 L 294.4499361037239 377.9882273346666 Z"/></g></g><g><g><rect fill="white" stroke="none" x="355.94967469223894" y="397.04596451799995" width="84.66908300613281" height="22.86928462"/></g><text fill="black" stroke="none" font-family="sans-serif" font-size="11pt" font-style="normal" font-weight="normal" text-decoration="normal" x="358.58843830223896" y="412.87854617799997" text-anchor="start" dominant-baseline="alphabetic">CanPrompt</text></g><g><path fill="none" stroke="black" paint-order="fill stroke markers" d=" M 326.7014913370573 419.9152491379999 L 466.9349814868867 419.9152491379999" stroke-miterlimit="10" stroke-width="1.4659797833333332" stroke-dasharray=""/><g transform="translate(469.8669410535534,419.9152491379999) translate(-469.8669410535534,-419.9152491379999)"><path fill="none" stroke="black" paint-order="fill stroke markers" d=" M 455.20714322022 412.5853502213333 L 468.40096127022 419.9152491379999 L 455.20714322022 427.2451480546666" stroke-miterlimit="10" stroke-width="1.4659797833333332"/></g></g><g><g><rect fill="white" stroke="none" x="384.21381196030535" y="446.30288523799993" width="28.14080847" height="22.86928462"/></g><text fill="black" stroke="none" font-family="sans-serif" font-size="11pt" font-style="normal" font-weight="normal" text-decoration="normal" x="386.85257557030536" y="462.13546689799995" text-anchor="start" dominant-baseline="alphabetic">yes</text></g><g><path fill="none" stroke="black" paint-order="fill stroke markers" d=" M 469.8669410535534 469.1721698579999 L 329.63345090372394 469.1721698579999" stroke-miterlimit="10" stroke-width="1.4659797833333332" stroke-dasharray="7.0367029599999995"/><g transform="translate(326.7014913370573,469.1721698579999) translate(-326.7014913370573,-469.1721698579999)"><path fill="none" stroke="black" paint-order="fill stroke markers" d=" M 341.36128917039065 461.84227094133325 L 328.16747112039064 469.1721698579999 L 341.36128917039065 476.50206877466655" stroke-miterlimit="10" stroke-width="1.4659797833333332"/></g></g><path fill="white" stroke="black" paint-order="fill stroke markers" d=" M 469.8669410535534 448.9416488479999 L 478.6628197535534 448.9416488479999 M 478.6628197535534 428.7111278379999 L 590.2403417969518 428.7111278379999 L 606.0729234569518 444.54370949799994 L 606.0729234569518 469.1721698579999 L 478.6628197535534 469.1721698579999 L 478.6628197535534 428.7111278379999 M 590.2403417969518 428.7111278379999 L 590.2403417969518 444.54370949799994 L 606.0729234569518 444.54370949799994" stroke-miterlimit="10" stroke-width="1.4659797833333332" stroke-dasharray=""/><g><text fill="black" stroke="none" font-family="sans-serif" font-size="11pt" font-style="normal" font-weight="normal" text-decoration="normal" x="503.2912801135534" y="453.3395881979999" text-anchor="start" dominant-baseline="alphabetic">out of date</text></g><g><g><rect fill="white" stroke="none" x="438.0113040649381" y="495.5598059579999" width="154.33270300125" height="22.86928462"/></g><text fill="black" stroke="none" font-family="sans-serif" font-size="11pt" font-style="normal" font-weight="normal" text-decoration="normal" x="440.6500676749381" y="511.39238761799993" text-anchor="start" dominant-baseline="alphabetic">ShowWelcome (BAD)</text></g><g><path fill="none" stroke="black" paint-order="fill stroke markers" d=" M 326.7014913370573 518.4290905779999 L 700.7218602274023 518.4290905779999" stroke-miterlimit="10" stroke-width="1.4659797833333332" stroke-dasharray=""/><g transform="translate(703.653819794069,518.4290905779999) translate(-703.653819794069,-518.4290905779999)"><path fill="none" stroke="black" paint-order="fill stroke markers" d=" M 688.9940219607357 511.09919166133324 L 702.1878400107357 518.4290905779999 L 688.9940219607357 525.7589894946666" stroke-miterlimit="10" stroke-width="1.4659797833333332"/></g></g><g><g><rect fill="white" stroke="none" x="352.17339731461453" y="588.7961201779999" width="84.40425146316406" height="22.86928462"/></g><text fill="black" stroke="none" font-family="sans-serif" font-size="11pt" font-style="normal" font-weight="normal" text-decoration="normal" x="354.81216092461455" y="604.6287018379999" text-anchor="start" dominant-baseline="alphabetic">SyncConfig</text></g><g><path fill="none" stroke="black" paint-order="fill stroke markers" d=" M 169.50689832644534 611.6654047979999 L 616.3121881992812 611.6654047979999" stroke-miterlimit="10" stroke-width="1.4659797833333332" stroke-dasharray=""/><g transform="translate(619.2441477659479,611.6654047979999) translate(-619.2441477659479,-611.6654047979999)"><path fill="none" stroke="black" paint-order="fill stroke markers" d=" M 604.5843499326146 604.3355058813332 L 617.7781679826146 611.6654047979999 L 604.5843499326146 618.9953037146666" stroke-miterlimit="10" stroke-width="1.4659797833333332"/></g></g><g><g><rect fill="white" stroke="none" x="492.8723929823678" y="682.032434398" width="103.36630285476562" height="22.86928462"/></g><text fill="black" stroke="none" font-family="sans-serif" font-size="11pt" font-style="normal" font-weight="normal" text-decoration="normal" x="495.5111565923678" y="697.8650160579999" text-anchor="start" dominant-baseline="alphabetic">UpdateConfig</text></g><g><path fill="none" stroke="black" paint-order="fill stroke markers" d=" M 619.2441477659479 704.901719018 L 472.79890062022 704.901719018" stroke-miterlimit="10" stroke-width="1.4659797833333332" stroke-dasharray=""/><g transform="translate(469.8669410535534,704.901719018) translate(-469.8669410535534,-704.901719018)"><path fill="none" stroke="black" paint-order="fill stroke markers" d=" M 484.52673888688673 697.5718201013333 L 471.33292083688673 704.901719018 L 484.52673888688673 712.2316179346667" stroke-miterlimit="10" stroke-width="1.4659797833333332"/></g></g><path fill="white" stroke="black" paint-order="fill stroke markers" d=" M 469.8669410535534 684.671198008 L 461.0710623535534 684.671198008 M 338.70034158472527 664.440676998 L 445.2384806935534 664.440676998 L 461.07106235355343 680.2732586579999 L 461.07106235355343 704.901719018 L 338.70034158472527 704.901719018 L 338.70034158472527 664.440676998 M 445.2384806935534 664.440676998 L 445.2384806935534 680.2732586579999 L 461.07106235355343 680.2732586579999" stroke-miterlimit="10" stroke-width="1.4659797833333332" stroke-dasharray=""/><g><text fill="black" stroke="none" font-family="sans-serif" font-size="11pt" font-style="normal" font-weight="normal" text-decoration="normal" x="363.3288019447253" y="689.069137358" text-anchor="start" dominant-baseline="alphabetic">up to date</text></g><path fill="white" stroke="black" paint-order="fill stroke markers" d=" M 160.71101962644534 839.478663128 L 151.91514092644533 839.478663128 M 26.387636100000005 819.2481421179999 L 136.08255926644534 819.2481421179999 L 151.91514092644533 835.0807237779999 L 151.91514092644533 859.709184138 L 26.387636100000005 859.709184138 L 26.387636100000005 819.2481421179999 M 136.08255926644534 819.2481421179999 L 136.08255926644534 835.0807237779999 L 151.91514092644533 835.0807237779999" stroke-miterlimit="10" stroke-width="1.4659797833333332" stroke-dasharray=""/><g><text fill="black" stroke="none" font-family="sans-serif" font-size="11pt" font-style="normal" font-weight="normal" text-decoration="normal" x="51.016096460000014" y="843.876602478" text-anchor="start" dominant-baseline="alphabetic">Good Case</text></g><g><g><rect fill="white" stroke="none" x="31.825541369238294" y="886.096820238" width="97.05993688796875" height="22.86928462"/></g><text fill="black" stroke="none" font-family="sans-serif" font-size="11pt" font-style="normal" font-weight="normal" text-decoration="normal" x="34.46430497923829" y="901.9294018979999" text-anchor="start" dominant-baseline="alphabetic">OnUserLogin</text></g><g><path fill="none" stroke="black" paint-order="fill stroke markers" d=" M 8.7958787 908.966104858 L 148.98318135977865 908.966104858" stroke-miterlimit="10" stroke-width="1.4659797833333332" stroke-dasharray=""/><g transform="translate(151.91514092644533,908.966104858) translate(-151.91514092644533,-908.966104858)"><path fill="black" stroke="none" paint-order="stroke fill markers" d=" M 137.255343093112 901.6362059413333 L 151.91514092644533 908.966104858 L 137.255343093112 916.2960037746667 Z"/></g></g><g><g><rect fill="white" stroke="none" x="352.17339731461453" y="935.353740958" width="84.40425146316406" height="22.86928462"/></g><text fill="black" stroke="none" font-family="sans-serif" font-size="11pt" font-style="normal" font-weight="normal" text-decoration="normal" x="354.81216092461455" y="951.186322618" text-anchor="start" dominant-baseline="alphabetic">SyncConfig</text></g><g><path fill="none" stroke="black" paint-order="fill stroke markers" d=" M 169.50689832644534 958.223025578 L 616.3121881992812 958.223025578" stroke-miterlimit="10" stroke-width="1.4659797833333332" stroke-dasharray=""/><g transform="translate(619.2441477659479,958.223025578) translate(-619.2441477659479,-958.223025578)"><path fill="none" stroke="black" paint-order="fill stroke markers" d=" M 604.5843499326146 950.8931266613333 L 617.7781679826146 958.223025578 L 604.5843499326146 965.5529244946667" stroke-miterlimit="10" stroke-width="1.4659797833333332"/></g></g><g><g><rect fill="white" stroke="none" x="492.8723929823678" y="1028.590055178" width="103.36630285476562" height="22.86928462"/></g><text fill="black" stroke="none" font-family="sans-serif" font-size="11pt" font-style="normal" font-weight="normal" text-decoration="normal" x="495.5111565923678" y="1044.422636838" text-anchor="start" dominant-baseline="alphabetic">UpdateConfig</text></g><g><path fill="none" stroke="black" paint-order="fill stroke markers" d=" M 619.2441477659479 1051.459339798 L 472.79890062022 1051.459339798" stroke-miterlimit="10" stroke-width="1.4659797833333332" stroke-dasharray=""/><g transform="translate(469.8669410535534,1051.459339798) translate(-469.8669410535534,-1051.459339798)"><path fill="none" stroke="black" paint-order="fill stroke markers" d=" M 484.52673888688673 1044.1294408813333 L 471.33292083688673 1051.459339798 L 484.52673888688673 1058.7892387146667" stroke-miterlimit="10" stroke-width="1.4659797833333332"/></g></g><path fill="white" stroke="black" paint-order="fill stroke markers" d=" M 469.8669410535534 1031.228818788 L 461.0710623535534 1031.228818788 M 338.70034158472527 1010.9982977779999 L 445.2384806935534 1010.9982977779999 L 461.07106235355343 1026.830879438 L 461.07106235355343 1051.459339798 L 338.70034158472527 1051.459339798 L 338.70034158472527 1010.9982977779999 M 445.2384806935534 1010.9982977779999 L 445.2384806935534 1026.830879438 L 461.07106235355343 1026.830879438" stroke-miterlimit="10" stroke-width="1.4659797833333332" stroke-dasharray=""/><g><text fill="black" stroke="none" font-family="sans-serif" font-size="11pt" font-style="normal" font-weight="normal" text-decoration="normal" x="363.3288019447253" y="1035.6267581379998" text-anchor="start" dominant-baseline="alphabetic">up to date</text></g><g><g><rect fill="white" stroke="none" x="206.60153646950522" y="1077.846975898" width="65.41355932449218" height="22.86928462"/></g><text fill="black" stroke="none" font-family="sans-serif" font-size="11pt" font-style="normal" font-weight="normal" text-decoration="normal" x="209.24030007950523" y="1093.679557558" text-anchor="start" dominant-baseline="alphabetic">OnLogin</text></g><g><path fill="none" stroke="black" paint-order="fill stroke markers" d=" M 169.50689832644534 1100.716260518 L 306.17777437039064 1100.716260518" stroke-miterlimit="10" stroke-width="1.4659797833333332" stroke-dasharray=""/><g transform="translate(309.1097339370573,1100.716260518) translate(-309.1097339370573,-1100.716260518)"><path fill="black" stroke="none" paint-order="stroke fill markers" d=" M 294.4499361037239 1093.3863616013332 L 309.1097339370573 1100.716260518 L 294.4499361037239 1108.0461594346666 Z"/></g></g><g><g><rect fill="white" stroke="none" x="355.94967469223894" y="1127.103896618" width="84.66908300613281" height="22.86928462"/></g><text fill="black" stroke="none" font-family="sans-serif" font-size="11pt" font-style="normal" font-weight="normal" text-decoration="normal" x="358.58843830223896" y="1142.9364782779999" text-anchor="start" dominant-baseline="alphabetic">CanPrompt</text></g><g><path fill="none" stroke="black" paint-order="fill stroke markers" d=" M 326.7014913370573 1149.9731812379998 L 466.9349814868867 1149.9731812379998" stroke-miterlimit="10" stroke-width="1.4659797833333332" stroke-dasharray=""/><g transform="translate(469.8669410535534,1149.9731812379998) translate(-469.8669410535534,-1149.9731812379998)"><path fill="none" stroke="black" paint-order="fill stroke markers" d=" M 455.20714322022 1142.6432823213331 L 468.40096127022 1149.9731812379998 L 455.20714322022 1157.3030801546665" stroke-miterlimit="10" stroke-width="1.4659797833333332"/></g></g><g><g><rect fill="white" stroke="none" x="384.21381196030535" y="1176.3608173379998" width="28.14080847" height="22.86928462"/></g><text fill="black" stroke="none" font-family="sans-serif" font-size="11pt" font-style="normal" font-weight="normal" text-decoration="normal" x="386.85257557030536" y="1192.1933989979998" text-anchor="start" dominant-baseline="alphabetic">yes</text></g><g><path fill="none" stroke="black" paint-order="fill stroke markers" d=" M 469.8669410535534 1199.2301019579998 L 329.63345090372394 1199.2301019579998" stroke-miterlimit="10" stroke-width="1.4659797833333332" stroke-dasharray="7.0367029599999995"/><g transform="translate(326.7014913370573,1199.2301019579998) translate(-326.7014913370573,-1199.2301019579998)"><path fill="none" stroke="black" paint-order="fill stroke markers" d=" M 341.36128917039065 1191.900203041333 L 328.16747112039064 1199.2301019579998 L 341.36128917039065 1206.5600008746665" stroke-miterlimit="10" stroke-width="1.4659797833333332"/></g></g><g><g><rect fill="white" stroke="none" x="442.7249728881803" y="1225.6177380579998" width="144.90536535476562" height="22.86928462"/></g><text fill="black" stroke="none" font-family="sans-serif" font-size="11pt" font-style="normal" font-weight="normal" text-decoration="normal" x="445.3637364981803" y="1241.4503197179997" text-anchor="start" dominant-baseline="alphabetic">ShowWelcome (OK)</text></g><g><path fill="none" stroke="black" paint-order="fill stroke markers" d=" M 326.7014913370573 1248.4870226779997 L 700.7218602274023 1248.4870226779997" stroke-miterlimit="10" stroke-width="1.4659797833333332" stroke-dasharray=""/><g transform="translate(703.653819794069,1248.4870226779997) translate(-703.653819794069,-1248.4870226779997)"><path fill="none" stroke="black" paint-order="fill stroke markers" d=" M 688.9940219607357 1241.157123761333 L 702.1878400107357 1248.4870226779997 L 688.9940219607357 1255.8169215946664" stroke-miterlimit="10" stroke-width="1.4659797833333332"/></g></g></g><g/><g/><g/><g/></g></svg>