<svg version="1.1" xmlns="http://www.w3.org/2000/svg" xmlns:xlink="http://www.w3.org/1999/xlink" width="479" height="743"><defs/><g><g/><g/><g/><g/><g/><g/><g/><g/><g><rect fill="white" stroke="none" x="0" y="0" width="479" height="743"/></g><g><text fill="black" stroke="none" font-family="sans-serif" font-size="16.5pt" font-style="normal" font-weight="normal" text-decoration="normal" x="151.55403331480926" y="26.3876361" text-anchor="start" dominant-baseline="alphabetic">sync-last-update</text></g><g/><g><path fill="none" stroke="black" paint-order="fill stroke markers" d=" M 192.94981151647136 103.26361593799999 L 192.94981151647136 743.603585298" stroke-miterlimit="10" stroke-width="1.4659797833333332" stroke-dasharray="13.532121076923076,5.863919133333333"/><path fill="none" stroke="black" paint-order="fill stroke markers" d=" M 403.8595076764974 103.26361593799999 L 403.8595076764974 743.603585298" stroke-miterlimit="10" stroke-width="1.4659797833333332" stroke-dasharray="13.532121076923076,5.863919133333333"/></g><g><path fill="none" stroke="none"/><g><path fill="white" stroke="black" paint-order="fill stroke markers" d=" M 127.98227683219793 55.765870957999994 L 257.91734620074476 55.765870957999994 L 257.91734620074476 103.26361593799999 L 127.98227683219793 103.26361593799999 L 127.98227683219793 55.765870957999994 Z" stroke-miterlimit="10" stroke-width="2.814681184" stroke-dasharray=""/></g><g><g/><text fill="black" stroke="none" font-family="sans-serif" font-size="11pt" font-style="normal" font-weight="normal" text-decoration="normal" x="147.06933361119792" y="85.67185853800001" text-anchor="start" dominant-baseline="alphabetic">ConfigModel</text></g><path fill="none" stroke="none"/><g><path fill="white" stroke="black" paint-order="fill stroke markers" d=" M 337.0415930483763 55.765870957999994 L 470.6774223046185 55.765870957999994 L 470.6774223046185 103.26361593799999 L 337.0415930483763 103.26361593799999 L 337.0415930483763 55.765870957999994 Z" stroke-miterlimit="10" stroke-width="2.814681184" stroke-dasharray=""/></g><g><g/><text fill="black" stroke="none" font-family="sans-serif" font-size="11pt" font-style="normal" font-weight="normal" text-decoration="normal" x="356.1286498273763" y="85.67185853800001" text-anchor="start" dominant-baseline="alphabetic">SyncManager</text></g></g><g><path fill="white" stroke="black" paint-order="fill stroke markers" d=" M 184.15393281647135 254.55272957799997 L 201.74569021647136 254.55272957799997 L 201.74569021647136 682.032434398 L 184.15393281647135 682.032434398 L 184.15393281647135 254.55272957799997" stroke-miterlimit="10" stroke-width="1.4659797833333332" stroke-dasharray=""/><path fill="white" stroke="black" paint-order="fill stroke markers" d=" M 395.0636289764974 303.80965029799995 L 412.6553863764974 303.80965029799995 L 412.6553863764974 682.032434398 L 395.0636289764974 682.032434398 L 395.0636289764974 303.80965029799995" stroke-miterlimit="10" stroke-width="1.4659797833333332" stroke-dasharray=""/><path fill="white" stroke="black" paint-order="fill stroke markers" d=" M 403.8595076764974 402.3234917379999 L 421.4512650764974 402.3234917379999 L 421.4512650764974 638.053040898 L 403.8595076764974 638.053040898 L 403.8595076764974 402.3234917379999" stroke-miterlimit="10" stroke-width="1.4659797833333332" stroke-dasharray=""/><path fill="white" stroke="black" paint-order="fill stroke markers" d=" M 412.6553863764974 500.8373331779999 L 430.2471437764974 500.8373331779999 L 430.2471437764974 594.0736473979999 L 412.6553863764974 594.0736473979999 L 412.6553863764974 500.8373331779999" stroke-miterlimit="10" stroke-width="1.4659797833333332" stroke-dasharray=""/><g><g><rect fill="white" stroke="none" x="249.42015471451174" y="138.44713073799997" width="97.96900976394531" height="22.86928462"/></g><text fill="black" stroke="none" font-family="sans-serif" font-size="11pt" font-style="normal" font-weight="normal" text-decoration="normal" x="252.05891832451175" y="154.279712398" text-anchor="start" dominant-baseline="alphabetic">AddObserver</text></g><g><path fill="none" stroke="black" paint-order="fill stroke markers" d=" M 403.8595076764974 161.31641535799997 L 195.88177108313803 161.31641535799997" stroke-miterlimit="10" stroke-width="1.4659797833333332" stroke-dasharray=""/><g transform="translate(192.94981151647136,161.31641535799997) translate(-192.94981151647136,-161.31641535799997)"><path fill="none" stroke="black" paint-order="fill stroke markers" d=" M 207.60960934980469 153.9865164413333 L 194.41579129980468 161.31641535799997 L 207.60960934980469 168.64631427466665" stroke-miterlimit="10" stroke-width="1.4659797833333332"/></g></g><g><g><rect fill="white" stroke="none" x="29.612791623333337" y="231.68344495799997" width="133.72422826980468" height="22.86928462"/></g><text fill="black" stroke="none" font-family="sans-serif" font-size="11pt" font-style="normal" font-weight="normal" text-decoration="normal" x="32.251555233333335" y="247.51602661799998" text-anchor="start" dominant-baseline="alphabetic">OnConfigUpdated</text></g><g><path fill="none" stroke="black" paint-order="fill stroke markers" d=" M 8.7958787 254.55272957799997 L 181.22197324980468 254.55272957799997" stroke-miterlimit="10" stroke-width="1.4659797833333332" stroke-dasharray=""/><g transform="translate(184.15393281647135,254.55272957799997) translate(-184.15393281647135,-254.55272957799997)"><path fill="black" stroke="none" paint-order="stroke fill markers" d=" M 169.49413498313803 247.2228306613333 L 184.15393281647135 254.55272957799997 L 169.49413498313803 261.8826284946666 Z"/></g></g><g><g><rect fill="white" stroke="none" x="238.385791921543" y="280.940365678" width="120.03773534988281" height="22.86928462"/></g><text fill="black" stroke="none" font-family="sans-serif" font-size="11pt" font-style="normal" font-weight="normal" text-decoration="normal" x="241.024555531543" y="296.772947338" text-anchor="start" dominant-baseline="alphabetic">OnDataUpdated</text></g><g><path fill="none" stroke="black" paint-order="fill stroke markers" d=" M 201.74569021647136 303.80965029799995 L 392.13166940983075 303.80965029799995" stroke-miterlimit="10" stroke-width="1.4659797833333332" stroke-dasharray=""/><g transform="translate(395.0636289764974,303.80965029799995) translate(-395.0636289764974,-303.80965029799995)"><path fill="black" stroke="none" paint-order="stroke fill markers" d=" M 380.40383114316404 296.4797513813333 L 395.0636289764974 303.80965029799995 L 380.40383114316404 311.1395492146666 Z"/></g></g><g><g><rect fill="white" stroke="none" x="222.5626031398047" y="330.19728639799996" width="151.68411291335937" height="22.86928462"/></g><text fill="black" stroke="none" font-family="sans-serif" font-size="11pt" font-style="normal" font-weight="normal" text-decoration="normal" x="225.20136674980472" y="346.029868058" text-anchor="start" dominant-baseline="alphabetic">UpdateLastSyncTime</text></g><g><path fill="none" stroke="black" paint-order="fill stroke markers" d=" M 395.0636289764974 353.06657101799993 L 204.67764978313804 353.06657101799993" stroke-miterlimit="10" stroke-width="1.4659797833333332" stroke-dasharray=""/><g transform="translate(201.74569021647136,353.06657101799993) translate(-201.74569021647136,-353.06657101799993)"><path fill="none" stroke="black" paint-order="fill stroke markers" d=" M 216.4054880498047 345.7366721013333 L 203.21166999980468 353.06657101799993 L 216.4054880498047 360.3964699346666" stroke-miterlimit="10" stroke-width="1.4659797833333332"/></g></g><g><g><rect fill="white" stroke="none" x="242.783731271543" y="379.45420711799994" width="120.03773534988281" height="22.86928462"/></g><text fill="black" stroke="none" font-family="sans-serif" font-size="11pt" font-style="normal" font-weight="normal" text-decoration="normal" x="245.422494881543" y="395.28678877799996" text-anchor="start" dominant-baseline="alphabetic">OnDataUpdated</text></g><g><path fill="none" stroke="black" paint-order="fill stroke markers" d=" M 201.74569021647136 402.3234917379999 L 400.92754810983075 402.3234917379999" stroke-miterlimit="10" stroke-width="1.4659797833333332" stroke-dasharray=""/><g transform="translate(403.8595076764974,402.3234917379999) translate(-403.8595076764974,-402.3234917379999)"><path fill="black" stroke="none" paint-order="stroke fill markers" d=" M 389.19970984316404 394.99359282133327 L 403.8595076764974 402.3234917379999 L 389.19970984316404 409.65339065466657 Z"/></g></g><g><g><rect fill="white" stroke="none" x="226.9605424898047" y="428.7111278379999" width="151.68411291335937" height="22.86928462"/></g><text fill="black" stroke="none" font-family="sans-serif" font-size="11pt" font-style="normal" font-weight="normal" text-decoration="normal" x="229.59930609980472" y="444.54370949799994" text-anchor="start" dominant-baseline="alphabetic">UpdateLastSyncTime</text></g><g><path fill="none" stroke="black" paint-order="fill stroke markers" d=" M 403.8595076764974 451.5804124579999 L 204.67764978313804 451.5804124579999" stroke-miterlimit="10" stroke-width="1.4659797833333332" stroke-dasharray=""/><g transform="translate(201.74569021647136,451.5804124579999) translate(-201.74569021647136,-451.5804124579999)"><path fill="none" stroke="black" paint-order="fill stroke markers" d=" M 216.4054880498047 444.25051354133325 L 203.21166999980468 451.5804124579999 L 216.4054880498047 458.91031137466655" stroke-miterlimit="10" stroke-width="1.4659797833333332"/></g></g><g><g><rect fill="white" stroke="none" x="247.181670621543" y="477.9680485579999" width="120.03773534988281" height="22.86928462"/></g><text fill="black" stroke="none" font-family="sans-serif" font-size="11pt" font-style="normal" font-weight="normal" text-decoration="normal" x="249.820434231543" y="493.8006302179999" text-anchor="start" dominant-baseline="alphabetic">OnDataUpdated</text></g><g><path fill="none" stroke="black" paint-order="fill stroke markers" d=" M 201.74569021647136 500.8373331779999 L 409.72342680983076 500.8373331779999" stroke-miterlimit="10" stroke-width="1.4659797833333332" stroke-dasharray=""/><g transform="translate(412.6553863764974,500.8373331779999) translate(-412.6553863764974,-500.8373331779999)"><path fill="black" stroke="none" paint-order="stroke fill markers" d=" M 397.99558854316405 493.50743426133323 L 412.6553863764974 500.8373331779999 L 397.99558854316405 508.16723209466653 Z"/></g></g><g><g><rect fill="white" stroke="none" x="231.3584818398047" y="527.2249692779999" width="151.68411291335937" height="22.86928462"/></g><text fill="black" stroke="none" font-family="sans-serif" font-size="11pt" font-style="normal" font-weight="normal" text-decoration="normal" x="233.99724544980472" y="543.0575509379998" text-anchor="start" dominant-baseline="alphabetic">UpdateLastSyncTime</text></g><g><path fill="none" stroke="black" paint-order="fill stroke markers" d=" M 412.6553863764974 550.0942538979999 L 204.67764978313804 550.0942538979999" stroke-miterlimit="10" stroke-width="1.4659797833333332" stroke-dasharray=""/><g transform="translate(201.74569021647136,550.0942538979999) translate(-201.74569021647136,-550.0942538979999)"><path fill="none" stroke="black" paint-order="fill stroke markers" d=" M 216.4054880498047 542.7643549813332 L 203.21166999980468 550.0942538979999 L 216.4054880498047 557.4241528146666" stroke-miterlimit="10" stroke-width="1.4659797833333332"/></g></g></g><g/><g/></g></svg>